<svg fill="#1A1A1A" xmlns="http://www.w3.org/2000/svg"  viewBox="0 0 24 24" width="24px" height="24px"><path d="M 3.5 3 C 2.6774686 3 2 3.6774686 2 4.5 L 2 18.5 C 2 19.322531 2.6774686 20 3.5 20 L 20.5 20 C 21.322531 20 22 19.322531 22 18.5 L 22 6.5 C 22 5.6774686 21.322531 5 20.5 5 L 10.626953 5 C 10.494266 5 10.368136 4.9496639 10.273438 4.8554688 A 0.50005 0.50005 0 0 0 10.273438 4.8535156 L 8.8457031 3.4355469 L 8.8457031 3.4375 C 8.5648004 3.1565972 8.182927 3 7.7871094 3 L 3.5 3 z M 3.5 4 L 7.7871094 4 C 7.9212918 4 8.0455746 4.0514341 8.1386719 4.1445312 A 0.50005 0.50005 0 0 0 8.140625 4.1464844 L 9.5683594 5.5644531 C 9.8496605 5.844258 10.23164 6 10.626953 6 L 20.5 6 C 20.781469 6 21 6.2185314 21 6.5 L 21 18.5 C 21 18.781469 20.781469 19 20.5 19 L 3.5 19 C 3.2185314 19 3 18.781469 3 18.5 L 3 4.5 C 3 4.2185314 3.2185314 4 3.5 4 z"/></svg>