<svg xmlns="http://www.w3.org/2000/svg"  viewBox="0 0 80 80" width="40px" height="40px"><path fill="#8bb7f0" d="M67.5,75.5h-55c-4.418,0-8-3.582-8-8v-55c0-4.418,3.582-8,8-8h55c4.418,0,8,3.582,8,8v55	C75.5,71.918,71.918,75.5,67.5,75.5z"/><path fill="#fff" d="M17,66c0,0,10-4,8-17l13,12C38,61,28,70,17,66z"/><path fill="#fff" d="M67.5,4.5H21.135C16.036,11.153,13,19.47,13,28.5C13,50.315,30.685,68,52.5,68	c8.584,0,16.521-2.747,23-7.397V12.5C75.5,8.082,71.918,4.5,67.5,4.5z"/><path fill="none" stroke="#4e7ab5" stroke-miterlimit="10" d="M67.5,75.5h-55c-4.418,0-8-3.582-8-8v-55c0-4.418,3.582-8,8-8h55	c4.418,0,8,3.582,8,8v55C75.5,71.918,71.918,75.5,67.5,75.5z"/><path fill="#8bb7f0" d="M64.378,41.967c-3.65,0-6.622-2.972-6.622-6.622s2.972-6.622,6.622-6.622S71,31.696,71,35.345	S68.028,41.967,64.378,41.967z M64.378,31.372c-2.19,0-3.973,1.783-3.973,3.973s1.783,3.973,3.973,3.973s3.973-1.783,3.973-3.973	S66.568,31.372,64.378,31.372z"/><path fill="#8bb7f0" d="M55.108,41.967h-1.766c-0.487,0-0.883-0.396-0.883-0.883V26.075h2.649V41.967z"/><path fill="#8bb7f0" d="M47.162,29.165v0.916c-1.111-0.841-2.477-1.358-3.973-1.358c-3.65,0-6.622,2.972-6.622,6.622	s2.972,6.622,6.622,6.622c1.496,0,2.862-0.517,3.973-1.358v0.475c0,0.487,0.396,0.883,0.883,0.883h1.766V29.165H47.162z M43.189,39.318c-2.19,0-3.973-1.783-3.973-3.973s1.783-3.973,3.973-3.973s3.973,1.783,3.973,3.973S45.379,39.318,43.189,39.318z"/><path fill="#8bb7f0" d="M37.009,26.075H22.883v2.649h9.396l-9.837,11.477h0.046C22.2,40.574,22,41.019,22,41.526v0.441	h13.243c0.487,0,0.883-0.396,0.883-0.883v-1.766H26.73l9.837-11.477h-0.046c0.288-0.373,0.487-0.818,0.487-1.324V26.075z"/></svg>