<svg id="Layer_1" data-name="Layer 1" xmlns="http://www.w3.org/2000/svg" xmlns:xlink="http://www.w3.org/1999/xlink" viewBox="0 0 104.63 31"><defs><style>.cls-1{fill:#a6a6a6;}.cls-10,.cls-2,.cls-3{fill:#fff;}.cls-2{stroke:#fff;stroke-miterlimit:10;stroke-width:0.2px;}.cls-4{fill:url(#linear-gradient);}.cls-5{fill:url(#linear-gradient-2);}.cls-6{fill:url(#linear-gradient-3);}.cls-7{fill:url(#linear-gradient-4);}.cls-8{opacity:0.2;}.cls-10,.cls-8,.cls-9{isolation:isolate;}.cls-9{opacity:0.12;}.cls-10{opacity:0.25;}</style><linearGradient id="linear-gradient" x1="16.89" y1="-7770.7" x2="3.89" y2="-7783.71" gradientTransform="matrix(1, 0, 0, -1, 0, -7763.95)" gradientUnits="userSpaceOnUse"><stop offset="0" stop-color="#00a0ff"/><stop offset="0.01" stop-color="#00a1ff"/><stop offset="0.26" stop-color="#00beff"/><stop offset="0.51" stop-color="#00d2ff"/><stop offset="0.76" stop-color="#00dfff"/><stop offset="1" stop-color="#00e3ff"/></linearGradient><linearGradient id="linear-gradient-2" x1="26.22" y1="-7779.45" x2="7.47" y2="-7779.45" gradientTransform="matrix(1, 0, 0, -1, 0, -7763.95)" gradientUnits="userSpaceOnUse"><stop offset="0" stop-color="#ffe000"/><stop offset="0.41" stop-color="#ffbd00"/><stop offset="0.78" stop-color="orange"/><stop offset="1" stop-color="#ff9c00"/></linearGradient><linearGradient id="linear-gradient-3" x1="19.24" y1="-7781.23" x2="1.6" y2="-7798.87" gradientTransform="matrix(1, 0, 0, -1, 0, -7763.95)" gradientUnits="userSpaceOnUse"><stop offset="0" stop-color="#ff3a44"/><stop offset="1" stop-color="#c31162"/></linearGradient><linearGradient id="linear-gradient-4" x1="5.66" y1="-7764.09" x2="13.53" y2="-7771.97" gradientTransform="matrix(1, 0, 0, -1, 0, -7763.95)" gradientUnits="userSpaceOnUse"><stop offset="0" stop-color="#32a071"/><stop offset="0.07" stop-color="#2da771"/><stop offset="0.48" stop-color="#15cf74"/><stop offset="0.8" stop-color="#06e775"/><stop offset="1" stop-color="#00f076"/></linearGradient></defs><title>photo_logo-android</title><rect width="104.63" height="31" rx="3.88"/><path class="cls-1" d="M100.75.62A3.26,3.26,0,0,1,104,3.88V27.13a3.26,3.26,0,0,1-3.26,3.25H3.88A3.26,3.26,0,0,1,.62,27.13V3.88A3.26,3.26,0,0,1,3.88.62h96.87m0-.62H3.88A3.88,3.88,0,0,0,0,3.88V27.13A3.88,3.88,0,0,0,3.88,31h96.87a3.89,3.89,0,0,0,3.88-3.87V3.88A3.89,3.89,0,0,0,100.75,0Z"/><path class="cls-2" d="M36.75,7.94a2.07,2.07,0,0,1-.58,1.55,2.26,2.26,0,0,1-1.71.69,2.39,2.39,0,0,1-2.41-2.43,2.39,2.39,0,0,1,2.41-2.43,2.39,2.39,0,0,1,1,.2,2,2,0,0,1,.73.52l-.41.4a1.61,1.61,0,0,0-1.28-.55,1.75,1.75,0,0,0-1.27.52,1.79,1.79,0,0,0-.53,1.34,1.79,1.79,0,0,0,.53,1.34,1.75,1.75,0,0,0,1.27.52,1.78,1.78,0,0,0,1.3-.52,1.42,1.42,0,0,0,.39-.94H34.46V7.59h2.26A2.16,2.16,0,0,1,36.75,7.94Z"/><path class="cls-2" d="M40.32,6H38.2V7.47h1.91V8H38.2V9.5h2.12v.58H37.61V5.43h2.71Z"/><path class="cls-2" d="M42.84,10.08h-.6V6h-1.3V5.43h3.2V6h-1.3Z"/><path class="cls-2" d="M46.45,10.08V5.43h.6v4.65Z"/><path class="cls-2" d="M49.7,10.08h-.6V6H47.8V5.43H51V6H49.7Z"/><path class="cls-2" d="M57.05,9.47a2.3,2.3,0,0,1-1.71.71,2.26,2.26,0,0,1-1.7-.71A2.36,2.36,0,0,1,53,7.75,2.36,2.36,0,0,1,53.64,6,2.39,2.39,0,0,1,57,6a2.36,2.36,0,0,1,.69,1.72A2.39,2.39,0,0,1,57.05,9.47Zm-3-.39a1.69,1.69,0,0,0,1.26.53,1.73,1.73,0,0,0,1.27-.53,1.81,1.81,0,0,0,.51-1.33,1.81,1.81,0,0,0-.51-1.33,1.73,1.73,0,0,0-1.27-.53,1.69,1.69,0,0,0-1.26.53,1.82,1.82,0,0,0-.52,1.33A1.82,1.82,0,0,0,54.08,9.08Z"/><path class="cls-2" d="M58.57,10.08V5.43h.73L61.56,9h0l0-.89V5.43h.6v4.65h-.63l-2.36-3.8h0l0,.9v2.9Z"/><path class="cls-3" d="M52.81,16.86a3.3,3.3,0,1,0,3.3,3.29A3.24,3.24,0,0,0,52.81,16.86Zm0,5.29a2,2,0,1,1,1.86-2A1.9,1.9,0,0,1,52.81,22.15Zm-7.22-5.29a3.3,3.3,0,1,0,3.31,3.29A3.24,3.24,0,0,0,45.59,16.86Zm0,5.29a2,2,0,1,1,1.86-2A1.9,1.9,0,0,1,45.59,22.15ZM37,17.87v1.4h3.35A2.93,2.93,0,0,1,39.59,21a3.46,3.46,0,0,1-2.59,1,3.72,3.72,0,0,1,0-7.44,3.57,3.57,0,0,1,2.52,1l1-1A4.88,4.88,0,0,0,37,13.21a5.12,5.12,0,1,0,0,10.24A4.67,4.67,0,0,0,40.57,22a4.58,4.58,0,0,0,1.21-3.27,4.58,4.58,0,0,0-.07-.87ZM72.12,19a3.08,3.08,0,0,0-2.83-2.1,3.13,3.13,0,0,0-3.11,3.29,3.29,3.29,0,0,0,6,1.84l-1.12-.75a1.89,1.89,0,0,1-1.62.91,1.68,1.68,0,0,1-1.6-1l4.41-1.82Zm-4.5,1.09a1.81,1.81,0,0,1,1.72-1.92,1.28,1.28,0,0,1,1.23.7ZM64,23.25h1.45V13.56H64Zm-2.37-5.66h-.05a2.32,2.32,0,0,0-1.74-.73,3.3,3.3,0,0,0,0,6.59,2.26,2.26,0,0,0,1.74-.75h.05v.48a1.69,1.69,0,0,1-1.77,1.93,1.84,1.84,0,0,1-1.66-1.17L57,24.46a3.14,3.14,0,0,0,2.92,1.95c1.7,0,3.14-1,3.14-3.43V17.06H61.67ZM60,22.15a1.89,1.89,0,0,1-1.83-2,1.91,1.91,0,0,1,1.83-2,1.86,1.86,0,0,1,1.76,2A1.83,1.83,0,0,1,60,22.15Zm18.9-8.59H75.43v9.69h1.45V19.58h2a3,3,0,1,0,0-6Zm0,4.67H76.88V14.91h2.06a1.66,1.66,0,1,1,0,3.32Zm8.93-1.39a2.72,2.72,0,0,0-2.58,1.48l1.29.54a1.35,1.35,0,0,1,1.32-.71,1.39,1.39,0,0,1,1.52,1.25v.09a3.31,3.31,0,0,0-1.51-.37c-1.38,0-2.79.76-2.79,2.18a2.23,2.23,0,0,0,2.41,2.13,2,2,0,0,0,1.84-.94h0v.74h1.4V19.52A2.66,2.66,0,0,0,87.87,16.84Zm-.17,5.31c-.47,0-1.13-.24-1.13-.82,0-.75.82-1,1.53-1a2.56,2.56,0,0,1,1.32.33A1.76,1.76,0,0,1,87.7,22.15Zm8.2-5.1-1.66,4.2h0l-1.72-4.2H90.92l2.58,5.87L92,26.19h1.5l4-9.14Zm-13,6.2h1.44V13.56H82.88Z"/><path class="cls-4" d="M8.09,5.84a1.54,1.54,0,0,0-.36,1.09V24.07a1.54,1.54,0,0,0,.36,1.09l.05.06,9.61-9.61v-.22L8.14,5.79Z"/><path class="cls-5" d="M21,18.82l-3.2-3.21v-.22l3.2-3.2.07,0,3.79,2.15a1.18,1.18,0,0,1,0,2.24L21,18.77Z"/><path class="cls-6" d="M21,18.77,17.75,15.5,8.09,25.16a1.26,1.26,0,0,0,1.61.05L21,18.77"/><path class="cls-7" d="M21,12.23,9.7,5.79a1.26,1.26,0,0,0-1.61,0l9.66,9.66Z"/><path class="cls-8" d="M21,18.7,9.7,25.09a1.28,1.28,0,0,1-1.55,0h0l-.06.06h0l.05.06h0a1.29,1.29,0,0,0,1.55,0L21,18.77Z"/><path class="cls-9" d="M8.09,25.05A1.54,1.54,0,0,1,7.73,24v.11a1.54,1.54,0,0,0,.36,1.09l.06-.06Z"/><path class="cls-9" d="M24.81,16.51,21,18.7l.07.07,3.79-2.15a1.36,1.36,0,0,0,.81-1.12h0A1.43,1.43,0,0,1,24.81,16.51Z"/><path class="cls-10" d="M9.7,5.91,24.81,14.5a1.4,1.4,0,0,1,.81,1h0a1.37,1.37,0,0,0-.81-1.12L9.7,5.79c-1.09-.61-2-.1-2,1.14V7C7.73,5.8,8.61,5.29,9.7,5.91Z"/></svg>