<svg id="Layer_1" data-name="Layer 1" xmlns="http://www.w3.org/2000/svg" viewBox="0 0 104.63 31"><defs><style>.cls-1{fill:#a6a6a6;}.cls-2{fill:#fff;}</style></defs><title>phôt_logo-IOS</title><rect width="104.63" height="31" rx="3.88"/><path class="cls-1" d="M100.75.62A3.26,3.26,0,0,1,104,3.88V27.13a3.26,3.26,0,0,1-3.26,3.25H3.88A3.26,3.26,0,0,1,.62,27.13V3.88A3.26,3.26,0,0,1,3.88.62h96.87m0-.62H3.88A3.88,3.88,0,0,0,0,3.88V27.13A3.88,3.88,0,0,0,3.88,31h96.87a3.89,3.89,0,0,0,3.88-3.87V3.88A3.89,3.89,0,0,0,100.75,0Z"/><path class="cls-2" d="M27.28,21a16.59,16.59,0,0,1-1.53,2.86c-1,1.52-2.4,3.4-4.13,3.42-1.55,0-1.94-1-4-1s-2.53,1-4.08,1c-1.74,0-3.06-1.72-4.06-3.23-2.78-4.24-3.07-9.21-1.36-11.85a6.17,6.17,0,0,1,5-3c1.84,0,3,1,4.52,1s2.38-1,4.51-1a6,6,0,0,1,4.53,2.39A5.18,5.18,0,0,0,27.28,21Z"/><path class="cls-2" d="M20.45,7.54A5.21,5.21,0,0,0,21.6,3.71,5.6,5.6,0,0,0,18,5.65a4.81,4.81,0,0,0-1.18,3.73A4.71,4.71,0,0,0,20.45,7.54Z"/><path class="cls-2" d="M36.79,12.14l-4,11.74h1.82l1.19-3.61h3.86l1.23,3.61h1.87l-4-11.74Zm1,1.93c.14.53.28,1.07.47,1.66l1.07,3.11H36.22l1.06-3.13C37.44,15.2,37.6,14.65,37.74,14.07Z"/><path class="cls-2" d="M47.94,15.19a3.3,3.3,0,0,0-2.82,1.35l-.07-1.17H43.42v.15c0,.73.07,1.53.07,2.68v9h1.78V23a3.11,3.11,0,0,0,2.42,1,3.63,3.63,0,0,0,2.69-1.14,4.83,4.83,0,0,0,1.19-3.41,4.75,4.75,0,0,0-1-3.12A3.36,3.36,0,0,0,47.94,15.19Zm-.44,1.47c1.58,0,2.29,1.46,2.29,2.91,0,1.88-.9,3-2.36,3A2.15,2.15,0,0,1,45.34,21a2.32,2.32,0,0,1-.06-.57V19a4,4,0,0,1,0-.44l0-.14A2.23,2.23,0,0,1,47.5,16.66Z"/><path class="cls-2" d="M57.08,15.19a3.3,3.3,0,0,0-2.82,1.35l-.07-1.17H52.57v.15c0,.73.07,1.53.07,2.68v9h1.78V23a3.11,3.11,0,0,0,2.42,1,3.67,3.67,0,0,0,2.7-1.14,4.87,4.87,0,0,0,1.18-3.41,4.69,4.69,0,0,0-1-3.12A3.36,3.36,0,0,0,57.08,15.19Zm-.44,1.47c1.58,0,2.29,1.46,2.29,2.91,0,1.88-.9,3-2.36,3A2.15,2.15,0,0,1,54.48,21a2.32,2.32,0,0,1-.06-.57V19a3.71,3.71,0,0,1,0-.44l0-.14A2.23,2.23,0,0,1,56.64,16.66Z"/><path class="cls-2" d="M68.53,17.12C66.88,16.47,66.35,16,66.35,15s.62-1.58,2-1.58a4.12,4.12,0,0,1,2.09.52l.15.1.5-1.48-.1-.06A5.12,5.12,0,0,0,68.41,12c-2.26,0-3.84,1.33-3.84,3.25,0,1.54,1,2.62,3.12,3.39,1.5.56,2.06,1.14,2.06,2.13s-.86,1.81-2.25,1.81a4.86,4.86,0,0,1-2.56-.72l-.16-.1-.47,1.51.08.06a6.11,6.11,0,0,0,3,.77c3.06,0,4.14-1.86,4.14-3.45S70.66,18,68.53,17.12Z"/><path class="cls-2" d="M74.72,13.35,73,13.9v1.47H71.71v1.42H73v4.35a3.29,3.29,0,0,0,.62,2.25,2.26,2.26,0,0,0,1.71.67,4.22,4.22,0,0,0,1.38-.21l.1,0L76.7,22.4l-.17.05a2.64,2.64,0,0,1-.83.09c-.68,0-1-.43-1-1.45v-4.3h2.14V15.37H74.72Z"/><path class="cls-2" d="M81.26,15.19a4.17,4.17,0,0,0-4.21,4.5,4,4,0,0,0,4.08,4.37h0a4.18,4.18,0,0,0,4.22-4.52,4.49,4.49,0,0,0-1.13-3.14A4,4,0,0,0,81.26,15.19Zm-.05,1.4c1.6,0,2.33,1.55,2.33,3,0,1.78-1,3.07-2.36,3.07h0c-1.35,0-2.32-1.27-2.32-3C78.84,18.12,79.57,16.59,81.21,16.59Z"/><path class="cls-2" d="M90.8,15.27l-.11,0a1.61,1.61,0,0,0-.44-.05A2.51,2.51,0,0,0,88,16.61L88,15.37H86.38v.15c0,.7.07,1.49.07,2.56l0,5.8h1.78V19.35a3.8,3.8,0,0,1,0-.69,2,2,0,0,1,1.86-1.78,3.53,3.53,0,0,1,.48,0l.19,0Z"/><path class="cls-2" d="M94.79,15.17c-2.36,0-4,1.89-4,4.59A4,4,0,0,0,95,24.05a6.87,6.87,0,0,0,2.81-.54l.11-.05-.34-1.32-.15.06a5.7,5.7,0,0,1-2.23.39A2.45,2.45,0,0,1,92.51,20l5.72,0,0-.12a4.57,4.57,0,0,0,0-.74C98.31,17.33,97.39,15.17,94.79,15.17Zm-.12,1.35A1.74,1.74,0,0,1,96,17a2.53,2.53,0,0,1,.62,1.65h-4A2.25,2.25,0,0,1,94.67,16.52Z"/><path class="cls-2" d="M34.39,5.64a9,9,0,0,1,1.24-.09,2.8,2.8,0,0,1,1.83.5,1.8,1.8,0,0,1,.64,1.46,2.09,2.09,0,0,1-.65,1.58,3.06,3.06,0,0,1-2,.58,8.18,8.18,0,0,1-1.06-.05ZM35,9.22a3.39,3.39,0,0,0,.59,0c1.24,0,1.91-.63,1.91-1.72S36.89,6,35.66,6A3.7,3.7,0,0,0,35,6Z"/><path class="cls-2" d="M40.18,9.7a1.46,1.46,0,0,1-1.55-1.5,1.5,1.5,0,0,1,1.6-1.54,1.45,1.45,0,0,1,1.56,1.49,1.51,1.51,0,0,1-1.6,1.55Zm0-.4a1,1,0,0,0,1-1.13,1,1,0,1,0-2,0,1,1,0,0,0,1,1.12Z"/><path class="cls-2" d="M42.72,6.72l.43,1.48c.09.32.18.63.24.93h0c.07-.3.18-.61.28-.93l.53-1.48h.49l.51,1.46a8.91,8.91,0,0,1,.28,1h0a9,9,0,0,1,.25-1l.46-1.46h.58l-1,2.91h-.53l-.5-1.38c-.11-.34-.21-.62-.29-1h0a8.5,8.5,0,0,1-.29,1l-.52,1.38h-.54l-1-2.91Z"/><path class="cls-2" d="M47.4,7.51c0-.3,0-.54,0-.79h.52l0,.48h0A1.22,1.22,0,0,1,49,6.66,1.1,1.1,0,0,1,50.15,7.9V9.63h-.59V8c0-.47-.19-.87-.75-.87a.83.83,0,0,0-.78.54.66.66,0,0,0,0,.25V9.63H47.4Z"/><path class="cls-2" d="M51.1,5.37h.59V9.63H51.1Z"/><path class="cls-2" d="M54,9.7a1.46,1.46,0,0,1-1.55-1.5A1.5,1.5,0,0,1,54,6.66a1.45,1.45,0,0,1,1.55,1.49A1.5,1.5,0,0,1,54,9.7Zm0-.4a1,1,0,0,0,1-1.13,1,1,0,1,0-1.95,0A1,1,0,0,0,54,9.3Z"/><path class="cls-2" d="M58.61,8.94a3.67,3.67,0,0,0,0,.69h-.53l-.05-.36h0a1.28,1.28,0,0,1-1,.43.88.88,0,0,1-1-.84c0-.7.69-1.08,1.94-1.08V7.72c0-.24-.07-.68-.73-.67a1.68,1.68,0,0,0-.85.22l-.13-.36a2.24,2.24,0,0,1,1.06-.25,1.08,1.08,0,0,1,1.24,1.19ZM58,8.15c-.65,0-1.37.09-1.37.65a.49.49,0,0,0,.54.51.81.81,0,0,0,.8-.49.47.47,0,0,0,0-.17Z"/><path class="cls-2" d="M62.34,5.37V8.88c0,.26,0,.55,0,.75h-.53l0-.5h0a1.22,1.22,0,0,1-1.09.57,1.39,1.39,0,0,1-1.39-1.48,1.45,1.45,0,0,1,1.45-1.56,1.1,1.1,0,0,1,1,.44h0V5.37Zm-.59,2.54a.9.9,0,0,0,0-.23.86.86,0,0,0-.85-.61,1,1,0,0,0-1,1.12,1,1,0,0,0,1,1.08.88.88,0,0,0,.86-.63.82.82,0,0,0,0-.23Z"/><path class="cls-2" d="M66.05,9.7A1.46,1.46,0,0,1,64.5,8.2a1.5,1.5,0,0,1,1.6-1.54,1.45,1.45,0,0,1,1.56,1.49A1.51,1.51,0,0,1,66.05,9.7Zm0-.4a1,1,0,0,0,1-1.13,1,1,0,1,0-2,0,1,1,0,0,0,1,1.12Z"/><path class="cls-2" d="M68.4,7.51c0-.3,0-.54,0-.79h.52l0,.48h0A1.22,1.22,0,0,1,70,6.66,1.11,1.11,0,0,1,71.15,7.9V9.63h-.59V8c0-.47-.19-.87-.75-.87a.83.83,0,0,0-.78.54.66.66,0,0,0,0,.25V9.63H68.4Z"/><path class="cls-2" d="M74.23,6v.69h.84v.41h-.84V8.7c0,.36.11.56.44.56a1,1,0,0,0,.34,0l0,.41a2,2,0,0,1-.52.07.88.88,0,0,1-.63-.22,1.08,1.08,0,0,1-.23-.77V7.13h-.5V6.72h.5V6.19Z"/><path class="cls-2" d="M75.73,5.37h.59V7.18h0a1,1,0,0,1,.42-.37,1.19,1.19,0,0,1,.6-.15A1.1,1.1,0,0,1,78.48,7.9V9.63h-.59V8c0-.47-.19-.86-.75-.86a.83.83,0,0,0-.78.53.49.49,0,0,0,0,.25V9.63h-.59Z"/><path class="cls-2" d="M79.77,8.27a1,1,0,0,0,1.1,1,2.45,2.45,0,0,0,.9-.15l.1.38a3,3,0,0,1-1.08.18A1.43,1.43,0,0,1,79.2,8.23a1.48,1.48,0,0,1,1.52-1.58A1.27,1.27,0,0,1,82.05,8a.94.94,0,0,1,0,.26Zm1.71-.38a.77.77,0,0,0-.8-.86.91.91,0,0,0-.9.86Z"/></svg>